<svg width="15" height="15" viewBox="0 0 15 15" fill="none" xmlns="http://www.w3.org/2000/svg">
<path d="M12.2816 0.931412H1.75451C0.786899 0.931412 0 1.71831 0 2.68592V13.213C0 14.1806 0.786899 14.9675 1.75451 14.9675H12.2816C13.2492 14.9675 14.0361 14.1806 14.0361 13.213V2.68592C14.0361 1.71831 13.2492 0.931412 12.2816 0.931412Z" fill="#1976D2"/>
<path d="M11.8431 7.94947H9.64995V6.19496C9.64995 5.71071 10.043 5.75633 10.5272 5.75633H11.4045V3.56319H9.64995C8.19634 3.56319 7.01818 4.74134 7.01818 6.19496V7.94947H5.26367V10.1426H7.01818V14.9675H9.64995V10.1426H10.9658L11.8431 7.94947Z" fill="#FAFAFA"/>
</svg>
