<svg width="15" height="15" viewBox="0 0 15 15" fill="none" xmlns="http://www.w3.org/2000/svg">
<path d="M13.9233 5.99686C13.9857 5.99686 14.0363 6.04744 14.0363 6.10983V7.29595C14.0363 7.73989 13.9951 8.17397 13.916 8.59504C13.3042 11.8658 10.4227 14.3376 6.96884 14.3137C3.09336 14.287 -0.00819659 11.1557 0.000383972 7.28013C0.00890971 3.41156 3.14775 0.277985 7.01832 0.277985C8.91463 0.277985 10.6352 1.03028 11.8984 2.25228C11.944 2.29639 11.9452 2.36909 11.9003 2.41394L10.2223 4.09198C10.1791 4.13518 10.1093 4.1363 10.065 4.09417C9.27216 3.33949 8.19945 2.87617 7.01832 2.87617C4.57928 2.87617 2.61521 4.82629 2.59865 7.26528C2.58201 9.72028 4.56722 11.7157 7.01832 11.7157C9.00707 11.7157 10.6891 10.4019 11.2438 8.59504H7.1313C7.0689 8.59504 7.01832 8.54447 7.01832 8.48207V6.10981C7.01832 6.04741 7.0689 5.99683 7.1313 5.99683H13.9233V5.99686Z" fill="#2196F3"/>
<path d="M13.9231 5.99685H13.0758C13.1382 5.99685 13.1888 6.04743 13.1888 6.10982V7.29594C13.1888 7.73988 13.1476 8.17395 13.0685 8.59503C12.4848 11.7153 9.83539 14.1084 6.59399 14.3012C6.71801 14.3086 6.84286 14.3128 6.96858 14.3137C10.4225 14.3375 13.3039 11.8657 13.9157 8.59503C13.9948 8.17395 14.036 7.73988 14.036 7.29594V6.10979C14.036 6.04743 13.9854 5.99685 13.9231 5.99685Z" fill="#1E88E5"/>
<path d="M3.00357 5.445L0.872192 3.905C2.06793 1.74228 4.37213 0.277969 7.01807 0.277969C8.91437 0.277969 10.6349 1.03026 11.8981 2.25227C11.9437 2.29637 11.9449 2.36908 11.9001 2.41393L10.222 4.09196C10.1789 4.13508 10.1091 4.13643 10.0649 4.09437C9.2721 3.33956 8.19931 2.87618 7.01807 2.87618C5.23803 2.87618 3.70367 3.92844 3.00357 5.445Z" fill="#F44336"/>
<path d="M2.38818 5.00044L3.00349 5.44501C3.64251 4.06077 4.97669 3.06384 6.5582 2.90031C6.5701 2.89903 6.58153 2.89746 6.59365 2.89631C6.45446 2.8831 6.31342 2.87619 6.17076 2.87619C4.56274 2.87619 3.16134 3.72391 2.38818 5.00044Z" fill="#E53935"/>
<path d="M11.0509 2.25227C11.0965 2.29638 11.0977 2.36908 11.0528 2.41395L9.69079 3.77596C9.82128 3.8752 9.94618 3.98135 10.0647 4.09418C10.109 4.13632 10.1788 4.13519 10.222 4.09199L11.9 2.41395C11.9449 2.36908 11.9437 2.2964 11.8981 2.25227C10.6349 1.03026 8.91435 0.277969 7.01804 0.277969C6.87574 0.277969 6.73456 0.282712 6.59436 0.291073C8.32253 0.394013 9.88242 1.12193 11.0509 2.25227Z" fill="#E53935"/>
<path d="M12.1662 12.0653C10.8846 13.4483 9.05231 14.3139 7.01809 14.3139C4.2705 14.3139 1.89173 12.7349 0.739746 10.4347L2.91573 8.94352C3.5687 10.5683 5.15953 11.7157 7.01809 11.7157C8.18444 11.7157 9.24519 11.2638 10.0348 10.5256L12.1662 12.0653Z" fill="#4CAF50"/>
<path d="M2.9157 8.94354L2.27405 9.38323C3.0193 10.7716 4.48482 11.7157 6.1708 11.7157C6.31338 11.7157 6.45432 11.7087 6.59344 11.6955C4.91985 11.536 3.51831 10.4431 2.9157 8.94354Z" fill="#43A047"/>
<path d="M7.01802 14.3139C9.05224 14.3139 10.8845 13.4483 12.1661 12.0653L11.6441 11.6882C10.4407 13.1858 8.63552 14.1793 6.59546 14.3011C6.73527 14.3095 6.87612 14.3139 7.01802 14.3139Z" fill="#43A047"/>
<path d="M2.59821 7.29594C2.59821 7.87826 2.71088 8.43436 2.91564 8.94354L0.739628 10.4347C0.266326 9.49029 0 8.42419 0 7.29594C0 6.06604 0.316302 4.9101 0.872092 3.905L3.00347 5.445C2.74337 6.00784 2.59821 6.6351 2.59821 7.29594Z" fill="#FFC107"/>
<path d="M2.274 9.38325L2.91565 8.94355C2.7109 8.43437 2.59823 7.87828 2.59823 7.29595C2.59823 6.63511 2.74338 6.00785 3.00349 5.44501L2.38818 5.00044C1.98862 5.66016 1.75673 6.4343 1.75108 7.2653C1.74587 8.03163 1.93577 8.75319 2.274 9.38325Z" fill="#FFB300"/>
</svg>
