<svg width="47" height="31" viewBox="0 0 47 31" fill="none" xmlns="http://www.w3.org/2000/svg">
<path fill-rule="evenodd" clip-rule="evenodd" d="M47 17.8359C33.8641 7.65256 29.9474 0 29.9474 0C26.3321 1.80769 22.7769 3.25385 19.5231 4.33846C19.5231 3.25385 19.6436 2.22949 19.9449 1.20513C18.8 1.62692 17.5346 1.80769 16.2692 1.62692C16.45 2.59103 16.5705 3.55513 16.5705 4.51923C16.5705 4.76026 16.5705 5.00128 16.5705 5.24231C10.1833 7.11026 5.60385 7.71282 5.36282 7.71282C2.95256 13.7385 0 15.9679 0 15.9679C2.71154 15.1244 6.50769 9.03846 6.50769 9.03846C24.1628 5.42308 26.6936 3.3141 26.6936 3.3141C25.4885 5.48333 20.5474 10.5449 17.7154 12.8949C19.4628 12.3526 21.2103 11.8705 21.3308 11.8705C24.0423 8.73718 28.2603 3.13333 28.2603 3.13333C30.6705 7.53205 35.8526 12.5333 37.4795 14.1C37.7205 14.341 37.9013 14.5218 37.9615 14.5821C38.3833 15.0038 39.709 15.6064 39.95 15.7269C40.3115 15.8474 47 17.8359 47 17.8359ZM16.9923 5.12179C17.2333 4.45897 17.2936 3.67564 17.2333 2.95256L18.3782 2.77179C18.4385 2.77179 18.4385 2.77179 18.4987 2.77179C18.559 2.77179 18.559 2.89231 18.559 2.95256C18.6192 3.13333 18.6192 3.25385 18.6795 3.43462C18.7397 3.61538 18.7397 3.85641 18.8603 4.03718C18.9205 4.21795 18.9808 4.33846 19.041 4.51923C18.3179 4.76026 17.6551 4.94103 16.9923 5.12179ZM3.37436 24.4641C1.62692 28.0795 0.602564 29.9474 0.361538 30.1282H4.15769C4.76026 30.0077 4.94103 29.5859 4.76026 28.8026C3.79615 27.1154 3.79615 25.85 4.76026 25.0064L6.44744 28.6821C6.80897 29.5859 7.35128 30.0679 8.0141 30.1282H11.9308H13.9192C14.4013 30.1885 14.6423 30.0679 14.7628 29.7064C14.8833 29.3449 14.8231 28.9833 14.5821 28.5615C14.4013 27.4769 14.6423 26.2718 15.2449 25.0667H17.5346L18.8603 29.1038C19.1615 29.8269 19.5231 30.1885 20.0051 30.1885H23.5603C21.5115 25.609 20.3667 22.7167 20.0051 21.3308L19.7641 20.3064L19.1615 17.7154C19.041 17.4141 18.8 17.2333 18.4987 17.2333H15.0038C15.4859 17.9564 15.6064 18.8 15.3654 19.8244C14.4615 23.1385 13.4372 26.091 12.3526 28.6821C12.2321 29.1038 11.991 29.4654 11.75 29.8269C11.2679 28.9833 10.1231 26.6936 8.31538 22.8974C10.0026 19.4628 11.0269 17.5949 11.509 17.2333H8.0141C7.59231 17.4141 7.53205 17.7756 7.77308 18.2577C8.37564 18.9205 8.61667 19.5833 8.49615 20.3064C8.37564 21.0295 8.07436 21.3308 7.65256 21.3308L6.14615 17.2333H1.02436C1.3859 17.4744 2.41026 19.4026 3.97692 22.9577L3.61538 23.8013L3.37436 24.4641ZM23.3192 20.0654C23.741 20.1859 24.1628 19.9449 24.4038 19.4628C24.6449 18.9808 25.0667 18.6795 25.5487 18.7397H26.2718C26.5731 19.6436 26.7538 20.909 26.6936 22.4756C26.6333 24.0423 26.5731 25.4282 26.3923 26.5731C26.2115 27.7179 26.1513 28.6218 26.2718 29.2244C26.3321 29.8269 26.6936 30.1885 27.2359 30.1885H30.9115C30.1282 28.7423 29.7667 26.6936 29.7667 23.9218C29.7667 21.2103 29.8269 19.4628 29.9474 18.7397H30.4897C31.1526 18.7397 31.6346 18.9808 31.9359 19.4628C32.2372 20.0051 32.5987 20.1859 33.0205 20.0654C33.4423 19.9449 33.6833 19.5833 33.5628 18.9205C33.5026 18.1974 33.4423 17.4744 33.5026 16.7513C32.9603 17.1731 31.0923 17.3538 27.959 17.2936C25.0667 17.3538 23.3795 17.1731 22.8372 16.7513C22.8372 17.4744 22.8372 18.1974 22.7769 18.9205C22.7167 19.5833 22.8974 19.9449 23.3192 20.0654ZM40.3115 20.3064L39.709 17.7154C39.5885 17.4141 39.3474 17.2333 39.0462 17.2333H35.5513C36.0333 17.9564 36.1538 18.8 35.9128 19.8244C35.009 23.1385 33.9846 26.091 32.9 28.6821C32.7192 29.2244 32.4179 29.7064 31.9962 30.1282H34.4667C34.9487 30.1885 35.1897 30.0679 35.3103 29.7064C35.4308 29.3449 35.3705 28.9833 35.1295 28.5615C34.9487 27.4769 35.1897 26.2718 35.7923 25.0667H38.0821L39.4077 29.1038C39.709 29.8269 40.0705 30.1885 40.5526 30.1885H44.1077C42.059 25.609 40.9141 22.7167 40.5526 21.3308L40.3115 20.3064Z" fill="white"/>
</svg>
